<svg width="412" height="70" viewBox="0 0 412 70" fill="none" xmlns="http://www.w3.org/2000/svg">
<path d="M2.954 69C2.24267 69 1.66067 68.7737 1.208 68.321C0.755334 67.8683 0.529 67.2863 0.529 66.575V55.711C0.529 54.9997 0.755334 54.4177 1.208 53.965C1.66067 53.5123 2.24267 53.286 2.954 53.286H13.818C14.5293 53.286 15.1113 53.5123 15.564 53.965C16.0167 54.4177 16.243 54.9997 16.243 55.711V66.575C16.243 67.2863 16.0167 67.8683 15.564 68.321C15.1113 68.7737 14.5293 69 13.818 69H2.954ZM29.7616 69C29.0503 69 28.4683 68.7737 28.0156 68.321C27.563 67.8683 27.3366 67.2863 27.3366 66.575V55.711C27.3366 54.9997 27.563 54.4177 28.0156 53.965C28.4683 53.5123 29.0503 53.286 29.7616 53.286H40.6256C41.337 53.286 41.919 53.5123 42.3716 53.965C42.8243 54.4177 43.0506 54.9997 43.0506 55.711V66.575C43.0506 67.2863 42.8243 67.8683 42.3716 68.321C41.919 68.7737 41.337 69 40.6256 69H29.7616ZM56.5692 69C55.8579 69 55.2759 68.7737 54.8232 68.321C54.3706 67.8683 54.1442 67.2863 54.1442 66.575V55.711C54.1442 54.9997 54.3706 54.4177 54.8232 53.965C55.2759 53.5123 55.8579 53.286 56.5692 53.286H67.4332C68.1446 53.286 68.7266 53.5123 69.1792 53.965C69.6319 54.4177 69.8582 54.9997 69.8582 55.711V66.575C69.8582 67.2863 69.6319 67.8683 69.1792 68.321C68.7266 68.7737 68.1446 69 67.4332 69H56.5692ZM84.6469 69C83.9356 69 83.3536 68.7737 82.9009 68.321C82.4483 67.8683 82.2219 67.2863 82.2219 66.575V3.525C82.2219 2.81366 82.4483 2.23166 82.9009 1.779C83.3536 1.32633 83.9356 1.1 84.6469 1.1H113.456C118.823 1.1 123.221 1.876 126.648 3.42799C130.075 4.98 132.597 7.17866 134.214 10.024C135.895 12.8693 136.736 16.1997 136.736 20.015C136.736 22.4077 136.283 24.5093 135.378 26.32C134.537 28.1307 133.47 29.618 132.177 30.782C130.948 31.946 129.752 32.819 128.588 33.401C131.11 34.565 133.309 36.505 135.184 39.221C137.124 41.8723 138.094 45.041 138.094 48.727C138.094 52.801 137.189 56.3577 135.378 59.397C133.567 62.4363 130.884 64.7967 127.327 66.478C123.77 68.1593 119.438 69 114.329 69H84.6469ZM97.6449 57.651H112.486C115.655 57.651 118.047 56.778 119.664 55.032C121.281 53.2213 122.089 51.0873 122.089 48.63C122.089 46.108 121.248 44.0063 119.567 42.325C117.95 40.579 115.59 39.706 112.486 39.706H97.6449V57.651ZM97.6449 28.551H111.613C114.652 28.551 116.916 27.8073 118.403 26.32C119.955 24.768 120.731 22.7957 120.731 20.403C120.731 18.0103 119.955 16.1027 118.403 14.68C116.916 13.1927 114.652 12.449 111.613 12.449H97.6449V28.551ZM176.633 69.97C170.749 69.97 165.672 69 161.404 67.06C157.136 65.12 153.806 62.21 151.413 58.33C149.021 54.3853 147.727 49.4383 147.533 43.489C147.469 40.7083 147.436 37.96 147.436 35.244C147.436 32.4633 147.469 29.6503 147.533 26.805C147.727 20.985 149.021 16.1027 151.413 12.158C153.871 8.14867 157.233 5.14167 161.501 3.137C165.834 1.13233 170.878 0.129996 176.633 0.129996C182.324 0.129996 187.303 1.13233 191.571 3.137C195.904 5.14167 199.299 8.14867 201.756 12.158C204.214 16.1027 205.507 20.985 205.636 26.805C205.766 29.6503 205.83 32.4633 205.83 35.244C205.83 37.96 205.766 40.7083 205.636 43.489C205.442 49.4383 204.149 54.3853 201.756 58.33C199.364 62.21 196.033 65.12 191.765 67.06C187.497 69 182.453 69.97 176.633 69.97ZM176.633 57.457C180.384 57.457 183.456 56.3253 185.848 54.062C188.306 51.734 189.599 48.048 189.728 43.004C189.858 40.1587 189.922 37.5073 189.922 35.05C189.922 32.528 189.858 29.8767 189.728 27.096C189.664 23.7333 189.049 20.985 187.885 18.851C186.721 16.717 185.169 15.165 183.229 14.195C181.354 13.1603 179.155 12.643 176.633 12.643C174.111 12.643 171.88 13.1603 169.94 14.195C168 15.165 166.448 16.717 165.284 18.851C164.185 20.985 163.571 23.7333 163.441 27.096C163.377 29.8767 163.344 32.528 163.344 35.05C163.344 37.5073 163.377 40.1587 163.441 43.004C163.635 48.048 164.929 51.734 167.321 54.062C169.714 56.3253 172.818 57.457 176.633 57.457ZM220.295 69C219.584 69 219.002 68.7737 218.549 68.321C218.097 67.8683 217.87 67.2863 217.87 66.575V3.525C217.87 2.81366 218.097 2.23166 218.549 1.779C219.002 1.32633 219.584 1.1 220.295 1.1H229.122C230.092 1.1 230.804 1.32633 231.256 1.779C231.709 2.23166 232 2.58733 232.129 2.846L258.028 43.295V3.525C258.028 2.81366 258.255 2.23166 258.707 1.779C259.16 1.32633 259.71 1.1 260.356 1.1H270.25C270.962 1.1 271.544 1.32633 271.996 1.779C272.449 2.23166 272.675 2.81366 272.675 3.525V66.575C272.675 67.2217 272.449 67.8037 271.996 68.321C271.544 68.7737 270.962 69 270.25 69H261.326C260.356 69 259.645 68.7737 259.192 68.321C258.804 67.8037 258.513 67.448 258.319 67.254L232.517 28.066V66.575C232.517 67.2863 232.291 67.8683 231.838 68.321C231.386 68.7737 230.804 69 230.092 69H220.295ZM313.987 69.97C307.908 69.97 302.735 68.9677 298.467 66.963C294.263 64.8937 290.998 61.919 288.67 58.039C286.342 54.0943 285.048 49.309 284.79 43.683C284.725 41.0317 284.693 38.1863 284.693 35.147C284.693 32.1077 284.725 29.1977 284.79 26.417C285.048 20.8557 286.342 16.135 288.67 12.255C291.062 8.31033 294.393 5.30333 298.661 3.234C302.929 1.16466 308.037 0.129996 313.987 0.129996C318.319 0.129996 322.264 0.679664 325.821 1.779C329.377 2.87833 332.449 4.46266 335.036 6.53199C337.622 8.60133 339.627 11.0263 341.05 13.807C342.472 16.5877 343.248 19.6917 343.378 23.119C343.378 23.701 343.151 24.186 342.699 24.574C342.311 24.962 341.826 25.156 341.244 25.156H330.186C329.41 25.156 328.795 24.962 328.343 24.574C327.89 24.186 327.534 23.5393 327.276 22.634C326.306 18.8187 324.689 16.1997 322.426 14.777C320.162 13.3543 317.349 12.643 313.987 12.643C309.977 12.643 306.809 13.7423 304.481 15.941C302.153 18.1397 300.892 21.7933 300.698 26.902C300.504 32.2047 300.504 37.6367 300.698 43.198C300.892 48.3067 302.153 51.9603 304.481 54.159C306.809 56.3577 309.977 57.457 313.987 57.457C317.349 57.457 320.162 56.7457 322.426 55.323C324.754 53.8357 326.37 51.2167 327.276 47.466C327.534 46.496 327.89 45.8493 328.343 45.526C328.795 45.138 329.41 44.944 330.186 44.944H341.244C341.826 44.944 342.311 45.138 342.699 45.526C343.151 45.914 343.378 46.399 343.378 46.981C343.248 50.4083 342.472 53.5123 341.05 56.293C339.627 59.0737 337.622 61.4987 335.036 63.568C332.449 65.6373 329.377 67.2217 325.821 68.321C322.264 69.4203 318.319 69.97 313.987 69.97ZM356.702 69C355.99 69 355.408 68.7737 354.956 68.321C354.503 67.8683 354.277 67.2863 354.277 66.575V3.525C354.277 2.81366 354.503 2.23166 354.956 1.779C355.408 1.32633 355.99 1.1 356.702 1.1H367.275C367.986 1.1 368.568 1.32633 369.021 1.779C369.473 2.23166 369.7 2.81366 369.7 3.525V27.775H395.987V3.525C395.987 2.81366 396.213 2.23166 396.666 1.779C397.118 1.32633 397.7 1.1 398.412 1.1H408.985C409.696 1.1 410.278 1.32633 410.731 1.779C411.183 2.23166 411.41 2.81366 411.41 3.525V66.575C411.41 67.2863 411.183 67.8683 410.731 68.321C410.278 68.7737 409.696 69 408.985 69H398.412C397.7 69 397.118 68.7737 396.666 68.321C396.213 67.8683 395.987 67.2863 395.987 66.575V41.549H369.7V66.575C369.7 67.2863 369.473 67.8683 369.021 68.321C368.568 68.7737 367.986 69 367.275 69H356.702Z" fill="white"/>
</svg>
